<svg id="Layer_1" data-name="Layer 1" xmlns="http://www.w3.org/2000/svg" width="638" height="121" viewBox="0 0 638 121">
  <defs>
    <style>
      .cls-1 {
        fill: #faecc0;
      }
    </style>
  </defs>
  <title>Logo</title>
  <path class="cls-1" d="M301.38,83.91a51.86,51.86,0,0,1-5.61.28q-18.19,0-29.67-10.82T254.62,44.6q0-17.41,11.65-28T295.43,6a48.78,48.78,0,0,1,20.85,4.69,33,33,0,0,1,15.24,13.91A40.82,40.82,0,0,1,336.69,45a40.22,40.22,0,0,1-6.75,23q-6.76,10-19.55,14l-16.63,9.17c1.15-.11,2.15-.16,3-.16q12.35,0,28.41,5.56,12.35,4.27,19.57,4.28,10,0,11.9-7.56H359a19,19,0,0,1-6.4,12.45q-5.44,4.78-14.06,4.78a28,28,0,0,1-10.32-1.83,77,77,0,0,1-12.09-6.56q-13.35-8.5-22.24-8.51-5.34,0-10.35,4.23-3.33,2.77-4.61,2.78c-1.34,0-2-.61-2-1.84,0-.92.79-1.88,2.39-2.86s4.59-2.55,9-4.7c.93-.44,1.86-.93,2.78-1.45ZM267.35,45q0,18.18,7.26,27.3t21.77,9.12q12.74,0,20.13-9.12T323.9,45.1q0-17.58-7.28-26.94T295.49,8.79q-13.64,0-20.88,9.14T267.35,45Z"/>
  <g>
    <path class="cls-1" d="M13.15,26.62h-2l.3-13.79H67.16l.29,13.79H65.63C65,22.84,64.1,20.12,63,18.44a7,7,0,0,0-3.64-3.09,26.65,26.65,0,0,0-6.64-.57H43.47V55.26a75.87,75.87,0,0,0,.32,8.84,4.49,4.49,0,0,0,1.71,3.13q1.39,1,5.25,1h2.79v2H25v-2h3q3.68,0,5.09-.93a4.29,4.29,0,0,0,1.82-2.9,61.06,61.06,0,0,0,.4-9.15V14.78h-8.5a33.65,33.65,0,0,0-7.44.53A6.72,6.72,0,0,0,15.7,18.5,22.73,22.73,0,0,0,13.15,26.62Z"/>
    <path class="cls-1" d="M132.42,70.19H117q-4.1-2.88-12.56-15.06-2.72-3.89-5.63-7.46a28.84,28.84,0,0,0-4-4.36,6,6,0,0,0-3.43-.78H89.07V55.26a76.64,76.64,0,0,0,.31,8.86,4.51,4.51,0,0,0,1.7,3.11c.91.67,2.67,1,5.26,1h2.75v2H71.64v-2H73.5q3.68,0,5.1-.93a4.27,4.27,0,0,0,1.8-2.9,65.29,65.29,0,0,0,.38-9.15V27.13a62.17,62.17,0,0,0-.38-8.84,3.81,3.81,0,0,0-1.7-2.75q-1.31-.77-5.66-.76h-1V12.83l8.21-.42q8.2-.37,13-.38a48.36,48.36,0,0,1,13.34,1.52,17.85,17.85,0,0,1,8.31,5,11.86,11.86,0,0,1,3.17,8.29A12.85,12.85,0,0,1,114,36.44q-4.16,4-12.18,4.94,3.58,1.74,11.59,12.52,6.51,8.76,10.23,11.47a15.49,15.49,0,0,0,8.8,2.87ZM89.07,40.58c2.11-.06,4.3-.14,6.55-.25a25.16,25.16,0,0,0,5.88-.93,10.13,10.13,0,0,0,4-2.22A10,10,0,0,0,108,33.35a16.8,16.8,0,0,0,.89-5.84q0-6-3-9.68T92.66,14.19c-1,0-2.24.05-3.59.17Z"/>
    <path class="cls-1" d="M170,49H148.2l-1.48,3.64q-3.3,7.91-3.3,10.32a4.6,4.6,0,0,0,1.75,3.91,7.23,7.23,0,0,0,4.51,1.33v2H132.63v-2a9.19,9.19,0,0,0,5.67-2.68q1.86-2.1,4.48-8.82c.14-.43.82-2.06,2-4.91L161.48,12h1.65l19.16,45.55,2.62,6a8,8,0,0,0,2.39,3.19,8.71,8.71,0,0,0,4.5,1.46v2H169.26v-2a16.77,16.77,0,0,0,5.6-.61,2.37,2.37,0,0,0,1.46-2.43q0-.93-1.94-5.54Zm-.72-1.9L159.11,22.69,149,47.14Z"/>
    <path class="cls-1" d="M244.59,71.5,204,17.74v39.8a27.45,27.45,0,0,0,.48,6.51,5.52,5.52,0,0,0,2.77,2.88c1.53.87,3.81,1.31,6.86,1.31v2H192.73v-2a15.44,15.44,0,0,0,6.26-1.5,4.87,4.87,0,0,0,2.56-2.6,31.72,31.72,0,0,0,.4-6.6V27.13a40.6,40.6,0,0,0-.61-8.84,4.21,4.21,0,0,0-1.94-2.88q-1.34-.63-6-.63V12.83h16.92l34,44.88V23.41a12.76,12.76,0,0,0-.78-5.33,5.45,5.45,0,0,0-3.19-2.41,16.88,16.88,0,0,0-5.8-.89V12.83h20.81v1.95a15.09,15.09,0,0,0-5.73,1.4A5.19,5.19,0,0,0,247,18.82a16.73,16.73,0,0,0-.57,5.22V71.5Z"/>
  </g>
  <g>
    <path class="cls-1" d="M379.76,12.83h19.16v1.95a10.39,10.39,0,0,0-5.68,1.71,5.89,5.89,0,0,0-2.31,3.28,38,38,0,0,0-.42,7.06V45.91a75.13,75.13,0,0,1-.57,10.87,15.08,15.08,0,0,1-3.3,7A18.56,18.56,0,0,1,379,69.21a29.8,29.8,0,0,1-11.42,2,29.18,29.18,0,0,1-13-2.61A16.47,16.47,0,0,1,347,61.92q-2.26-4.12-2.27-11.06l.05-5.88V27.13a57.63,57.63,0,0,0-.41-8.84,3.86,3.86,0,0,0-1.69-2.75q-1.29-.77-5.64-.76h-1.32V12.83h26.19v1.95h-1.15c-2.82,0-4.66.23-5.54.7a3.66,3.66,0,0,0-1.75,2.6,53.2,53.2,0,0,0-.45,9.05V45.19q0,9.39.87,13.32a11.67,11.67,0,0,0,4.89,6.88q4,2.94,10.7,2.94a22.63,22.63,0,0,0,9.53-2,15.46,15.46,0,0,0,6.39-4.91,13.89,13.89,0,0,0,2.56-6,73.35,73.35,0,0,0,.47-9.8V26.07a29,29,0,0,0-.55-6.81,5.27,5.27,0,0,0-2.37-3.08,12.66,12.66,0,0,0-5.76-1.4Z"/>
    <path class="cls-1" d="M450.23,52.34h2L451,70.19h-47.5v-2h1.19q4.27,0,5.52-1.14a5.1,5.1,0,0,0,1.58-2.9,66.05,66.05,0,0,0,.34-8.94V27.13a63.76,63.76,0,0,0-.36-8.63,4.06,4.06,0,0,0-1.65-2.9q-1.29-.82-5.43-.82V12.83h41l1.36,14.3h-2q-1.35-6-3.32-8.52a8.34,8.34,0,0,0-4.67-3.17,40.82,40.82,0,0,0-8.72-.66h-7.95V38.85h6.09a16.52,16.52,0,0,0,5.86-.72,3.78,3.78,0,0,0,2.2-2.18,19.86,19.86,0,0,0,.53-5.69h2V49.89h-2q0-4.78-.81-6.41a3.86,3.86,0,0,0-2.34-2.12,19.74,19.74,0,0,0-5.23-.48h-6.3V54.45q0,10.2,1.31,12c.88,1.2,3.23,1.8,7.07,1.8h4.27a20.42,20.42,0,0,0,7.44-1.16,13.32,13.32,0,0,0,5.56-4.78A28.05,28.05,0,0,0,450.23,52.34Z"/>
    <path class="cls-1" d="M485.08,39.31q9.76.72,14.51,4.87a13.18,13.18,0,0,1,4.74,10.36,14.21,14.21,0,0,1-3.22,9.32A14.8,14.8,0,0,1,492.88,69a59.19,59.19,0,0,1-13.42,1.21H457v-2h2.2q3.69,0,5.1-.93a4.27,4.27,0,0,0,1.8-2.9,65.29,65.29,0,0,0,.38-9.15V27.34a62,62,0,0,0-.4-9,3.93,3.93,0,0,0-1.7-2.79q-1.29-.77-5.64-.76h-1.1V12.83l9.43-.25,10.74-.34q23.52,0,23.52,13.54a11.11,11.11,0,0,1-4,9Q493.21,38.13,485.08,39.31Zm-10.36-.8c.7,0,1.3,0,1.77,0,6.1,0,10.25-1,12.48-2.88s3.34-5,3.34-9.3A14.9,14.9,0,0,0,491,19.43a8.88,8.88,0,0,0-3.93-3.78q-2.62-1.34-9-1.34c-1.1,0-2.23,0-3.38.13Zm0,2.07V53.35c0,5.45.1,8.9.29,10.37a5.23,5.23,0,0,0,1.59,3.34q1.29,1.14,5.1,1.14,6.76,0,10.15-3.47t3.38-10.4q0-7.11-3.83-10.47T477.93,40.5C476.92,40.5,475.85,40.52,474.72,40.58Z"/>
    <path class="cls-1" d="M543.15,49H521.37l-1.48,3.64q-3.3,7.91-3.3,10.32a4.61,4.61,0,0,0,1.76,3.91,7.22,7.22,0,0,0,4.5,1.33v2h-17v-2a9.19,9.19,0,0,0,5.66-2.68q1.86-2.1,4.49-8.82c.14-.43.81-2.06,2-4.91L534.65,12h1.65l19.16,45.55,2.62,6a8,8,0,0,0,2.39,3.19A8.75,8.75,0,0,0,565,68.24v2H542.43v-2a16.8,16.8,0,0,0,5.61-.61,2.38,2.38,0,0,0,1.46-2.43q0-.93-2-5.54Zm-.72-1.9L532.28,22.69,522.17,47.14Z"/>
    <path class="cls-1" d="M627.41,70.19H612q-4.11-2.88-12.56-15.06-2.71-3.89-5.63-7.46a28.18,28.18,0,0,0-4-4.36,6,6,0,0,0-3.42-.78h-2.29V55.26a75.81,75.81,0,0,0,.32,8.86,4.54,4.54,0,0,0,1.69,3.11c.92.67,2.67,1,5.27,1h2.75v2H566.63v-2h1.86q3.68,0,5.1-.93a4.22,4.22,0,0,0,1.79-2.9,63.68,63.68,0,0,0,.38-9.15V27.13a60.62,60.62,0,0,0-.38-8.84,3.8,3.8,0,0,0-1.69-2.75q-1.31-.77-5.67-.76h-1V12.83l8.21-.42q8.21-.37,13-.38a48.44,48.44,0,0,1,13.35,1.52,18,18,0,0,1,8.31,5,11.9,11.9,0,0,1,3.17,8.29A12.85,12.85,0,0,1,609,36.44q-4.15,4-12.19,4.94,3.6,1.74,11.59,12.52,6.52,8.76,10.24,11.47a15.46,15.46,0,0,0,8.8,2.87ZM584.05,40.58c2.12-.06,4.3-.14,6.56-.25a25.34,25.34,0,0,0,5.88-.93,10.13,10.13,0,0,0,4-2.22A10,10,0,0,0,603,33.35a16.8,16.8,0,0,0,.89-5.84q0-6-3-9.68t-13.17-3.64c-1,0-2.24.05-3.6.17Z"/>
  </g>
  <g>
    <path class="cls-1" d="M381.81,87.2l.42,0,.8.06c.32,0,.67,0,1,0l1.12,0,1.11,0c.37,0,.72,0,1,0l.82-.06.44,0a.78.78,0,0,1,0,.22c0,.1,0,.18,0,.25a.38.38,0,0,1-.31.43,3.89,3.89,0,0,0-1.27.39.89.89,0,0,0-.5.85V99.63a1,1,0,0,0,.59.89,4.84,4.84,0,0,0,1.39.41.4.4,0,0,1,.32.44,1.86,1.86,0,0,1,0,.26c0,.12,0,.18,0,.2l-.46,0-.89-.06-1.11,0h-2.3l-1.07,0-.86.06-.47,0s0-.08,0-.2a1.58,1.58,0,0,1,0-.26.39.39,0,0,1,.31-.44,5.78,5.78,0,0,0,1.36-.41.88.88,0,0,0,.56-.86V89.34a.89.89,0,0,0-.51-.85,4.09,4.09,0,0,0-1.25-.39c-.21,0-.31-.18-.31-.43a2.36,2.36,0,0,1,0-.25A.71.71,0,0,1,381.81,87.2Z"/>
    <path class="cls-1" d="M392.5,90.55l-.17.14a.4.4,0,0,1-.23.08.79.79,0,0,1-.65-.41,10.8,10.8,0,0,1,2.68-2.49,5.82,5.82,0,0,1,3.21-1,4.32,4.32,0,0,1,3.21,1.1,4,4,0,0,1,1.07,2.87,5.12,5.12,0,0,1-.36,1.86,7.46,7.46,0,0,1-1.19,2,18.83,18.83,0,0,1-2.24,2.24c-.93.8-2.08,1.71-3.47,2.72h5.24a1.89,1.89,0,0,0,1-.26,2.3,2.3,0,0,0,.76-1.07.51.51,0,0,1,.5-.34,1.84,1.84,0,0,1,.34.06.57.57,0,0,0,.18,0q-.27.81-.51,1.68c-.15.58-.29,1.13-.42,1.67a.52.52,0,0,1-.15.31.6.6,0,0,1-.31.06c-.37,0-.84,0-1.4-.06s-1.17-.06-1.83-.06h-6.35v-.75c1.28-1.07,2.37-2,3.27-2.89a20.31,20.31,0,0,0,2.18-2.39,9.07,9.07,0,0,0,1.23-2.06,5,5,0,0,0,.39-1.89,3.45,3.45,0,0,0-.55-1.94,2.06,2.06,0,0,0-1.87-.82,4.22,4.22,0,0,0-1.74.37A8,8,0,0,0,392.5,90.55Z"/>
    <path class="cls-1" d="M404.07,88.44a2,2,0,0,1,.61-1.5,2,2,0,0,1,.68-.44,2.41,2.41,0,0,1,.87-.15,2.46,2.46,0,0,1,.88.15,2,2,0,0,1,.68.44,2,2,0,0,1,.44.66,2.32,2.32,0,0,1,.15.84,2,2,0,0,1-.16.83,1.93,1.93,0,0,1-.45.66,2,2,0,0,1-.69.44,2.39,2.39,0,0,1-.86.15,2.52,2.52,0,0,1-.89-.15,2.1,2.1,0,0,1-.68-.44,1.89,1.89,0,0,1-.43-.66A2.23,2.23,0,0,1,404.07,88.44Zm1.16-.19a2.78,2.78,0,0,0,.28,1.36.89.89,0,0,0,.81.51.71.71,0,0,0,.69-.39,2.41,2.41,0,0,0,.21-1.11,2.76,2.76,0,0,0-.28-1.35.88.88,0,0,0-.81-.52.73.73,0,0,0-.69.4A2.42,2.42,0,0,0,405.23,88.25Z"/>
    <path class="cls-1" d="M417.46,101.09a8.19,8.19,0,0,1-3.07-6.8,7.92,7.92,0,0,1,2.55-6.14,9.18,9.18,0,0,1,6.41-2.33,9.9,9.9,0,0,1,5.72,1.68l1.43-1.66.46.38-1.41,1.64a8,8,0,0,1,2.85,6.49,8.25,8.25,0,0,1-2.49,6.26,9.06,9.06,0,0,1-6.52,2.37,9.56,9.56,0,0,1-5.48-1.56l-1.36,1.6-.43-.34Zm1-1.13,9.69-11.33a5.68,5.68,0,0,0-4.76-2.2,5.84,5.84,0,0,0-3.46,1,5.55,5.55,0,0,0-2,2.76,12,12,0,0,0-.67,4.22A10.73,10.73,0,0,0,418.43,100Zm10-10.82-9.68,11.28a5.91,5.91,0,0,0,4.78,2,5.41,5.41,0,0,0,4.42-2c1.08-1.33,1.63-3.34,1.63-6A10.9,10.9,0,0,0,428.45,89.14Z"/>
    <path class="cls-1" d="M435.11,102.51V97.19h.61c.7,3.46,2.34,5.2,4.92,5.2a3.6,3.6,0,0,0,2.71-1,3.12,3.12,0,0,0,1-2.23,2.83,2.83,0,0,0-.85-2.08,10.29,10.29,0,0,0-3.07-1.79,22.64,22.64,0,0,1-3-1.49,4.6,4.6,0,0,1-1.58-1.67,4.4,4.4,0,0,1-.56-2.18,3.9,3.9,0,0,1,1.22-3,4.3,4.3,0,0,1,3.11-1.18,5.64,5.64,0,0,1,2,.34,5.11,5.11,0,0,1,1.9,1.42,2.67,2.67,0,0,0,.64-1.45h.53v4.33h-.53a5.83,5.83,0,0,0-1.65-3,3.9,3.9,0,0,0-2.72-1.09,2.72,2.72,0,0,0-2.17.8,2.65,2.65,0,0,0-.69,1.76,2.53,2.53,0,0,0,.87,1.94,11.56,11.56,0,0,0,3.08,1.8,31.9,31.9,0,0,1,3.11,1.54,4.28,4.28,0,0,1,1.56,1.6,4.68,4.68,0,0,1,.58,2.37,4.52,4.52,0,0,1-1.41,3.45,5.31,5.31,0,0,1-3.79,1.33,5.78,5.78,0,0,1-4.54-2.08,4.11,4.11,0,0,0-.6,1.61Z"/>
    <path class="cls-1" d="M448.41,90.11h-.56l.08-4H464l.08,4h-.52a6.52,6.52,0,0,0-.77-2.37,2.08,2.08,0,0,0-1.05-.89,7.81,7.81,0,0,0-1.92-.16h-2.66V98.37a22.28,22.28,0,0,0,.09,2.55,1.27,1.27,0,0,0,.5.9,2.67,2.67,0,0,0,1.51.3h.8v.56h-8.25v-.56h.86a2.84,2.84,0,0,0,1.47-.27,1.23,1.23,0,0,0,.52-.84,17.12,17.12,0,0,0,.12-2.64V86.69h-2.45a9.79,9.79,0,0,0-2.15.15,1.91,1.91,0,0,0-1,.92A6.36,6.36,0,0,0,448.41,90.11Z"/>
  </g>
  <g>
    <path class="cls-1" d="M144.7,90.74a1.94,1.94,0,0,1-.15.64.54.54,0,0,1-.53.26h-5l-.42,3.83a9.42,9.42,0,0,1,1.22-.3,8.44,8.44,0,0,1,1.25-.1,4.16,4.16,0,0,1,3,1,3.64,3.64,0,0,1,1.1,2.77A5.38,5.38,0,0,1,143,103a15.91,15.91,0,0,1-6.28,3,.83.83,0,0,1-.23-.5.3.3,0,0,1,.23-.3,15.26,15.26,0,0,0,2.91-1.52,8.34,8.34,0,0,0,1.78-1.57,4.8,4.8,0,0,0,.88-1.54,4.64,4.64,0,0,0,.24-1.41,2.72,2.72,0,0,0-.69-1.92,2.85,2.85,0,0,0-2.19-.76,9,9,0,0,0-2.33.38l.6-7h6.81Z"/>
    <path class="cls-1" d="M154.76,90.74a1.94,1.94,0,0,1-.15.64.52.52,0,0,1-.52.26h-5l-.43,3.83a10,10,0,0,1,1.23-.3,8.44,8.44,0,0,1,1.25-.1,4.16,4.16,0,0,1,3,1,3.64,3.64,0,0,1,1.1,2.77,5.38,5.38,0,0,1-2.13,4.14,16,16,0,0,1-6.29,3,.81.81,0,0,1-.22-.5.29.29,0,0,1,.22-.3,15.37,15.37,0,0,0,2.92-1.52,8.59,8.59,0,0,0,1.78-1.57,5,5,0,0,0,.88-1.54,4.93,4.93,0,0,0,.23-1.41,2.72,2.72,0,0,0-.69-1.92,2.82,2.82,0,0,0-2.19-.76,8.89,8.89,0,0,0-2.32.38l.6-7h6.81Z"/>
    <path class="cls-1" d="M156.63,91.51a2,2,0,0,1,.61-1.5,2,2,0,0,1,.68-.44,2.41,2.41,0,0,1,.87-.16,2.46,2.46,0,0,1,.88.16,2.1,2.1,0,0,1,.68.44,2,2,0,0,1,.44.66,2.32,2.32,0,0,1,.15.84,2,2,0,0,1-.16.83,1.93,1.93,0,0,1-.45.66,1.88,1.88,0,0,1-.69.43,2.2,2.2,0,0,1-.86.16,2.28,2.28,0,0,1-.89-.16,1.92,1.92,0,0,1-.68-.43,1.89,1.89,0,0,1-.43-.66A2.23,2.23,0,0,1,156.63,91.51Zm1.16-.19a2.78,2.78,0,0,0,.28,1.36.89.89,0,0,0,.81.51.72.72,0,0,0,.69-.4,2.34,2.34,0,0,0,.21-1.1,2.76,2.76,0,0,0-.28-1.35.89.89,0,0,0-.81-.52.71.71,0,0,0-.69.4A2.42,2.42,0,0,0,157.79,91.32Z"/>
    <path class="cls-1" d="M178.83,107,167.1,91.49V103a8.05,8.05,0,0,0,.14,1.88,1.57,1.57,0,0,0,.8.83,4,4,0,0,0,2,.38v.56h-6.19v-.56a4.32,4.32,0,0,0,1.81-.43,1.39,1.39,0,0,0,.74-.75,9,9,0,0,0,.12-1.91V94.21a11.61,11.61,0,0,0-.18-2.56,1.16,1.16,0,0,0-.56-.83,5,5,0,0,0-1.72-.18v-.56h4.89l9.82,13V93.13a3.72,3.72,0,0,0-.22-1.54,1.68,1.68,0,0,0-.93-.7,4.85,4.85,0,0,0-1.67-.25v-.56h6v.56a4.24,4.24,0,0,0-1.65.4,1.49,1.49,0,0,0-.77.76,4.88,4.88,0,0,0-.17,1.52V107Z"/>
    <path class="cls-1" d="M183.47,98.25A7.93,7.93,0,0,1,186,92.09a9.19,9.19,0,0,1,6.41-2.32,9.42,9.42,0,0,1,6.47,2.3,7.94,7.94,0,0,1,2.6,6.27,8.25,8.25,0,0,1-2.49,6.24,10.11,10.11,0,0,1-13,0A8.28,8.28,0,0,1,183.47,98.25Zm2.8.09q0,4,1.6,6a5.73,5.73,0,0,0,4.78,2,5.39,5.39,0,0,0,4.43-2c1.08-1.33,1.63-3.33,1.63-6a9.46,9.46,0,0,0-1.61-5.92,6.25,6.25,0,0,0-9.23,0C186.8,93.73,186.27,95.72,186.27,98.34Z"/>
    <path class="cls-1" d="M221,106.65h-4.46a19.8,19.8,0,0,1-3.63-4.35c-.52-.75-1.06-1.47-1.63-2.16a9.58,9.58,0,0,0-1.16-1.26,1.73,1.73,0,0,0-1-.22h-.66v3.68a22.25,22.25,0,0,0,.09,2.56,1.38,1.38,0,0,0,.49.9,2.86,2.86,0,0,0,1.53.29h.79v.56h-7.94v-.56H204a2.91,2.91,0,0,0,1.48-.27A1.27,1.27,0,0,0,206,105a19.4,19.4,0,0,0,.11-2.65V94.21a18.48,18.48,0,0,0-.11-2.56,1.11,1.11,0,0,0-.49-.79,3.83,3.83,0,0,0-1.64-.22h-.28v-.56l2.37-.13c1.58-.07,2.84-.11,3.77-.11a14,14,0,0,1,3.85.44,5.2,5.2,0,0,1,2.4,1.45,3.36,3.36,0,0,1,.92,2.39,3.71,3.71,0,0,1-1.2,2.78,6,6,0,0,1-3.52,1.43q1,.49,3.35,3.62a17,17,0,0,0,3,3.31,4.48,4.48,0,0,0,2.54.83ZM208.46,98.1l1.9-.08a6.8,6.8,0,0,0,1.7-.27,2.76,2.76,0,0,0,1.16-.64,2.84,2.84,0,0,0,.71-1.11,4.8,4.8,0,0,0,.25-1.68,4.24,4.24,0,0,0-.87-2.8q-.87-1-3.81-1c-.3,0-.65,0-1,0Z"/>
    <path class="cls-1" d="M221.63,90.21l2.73-.13q3.4-.18,4.59-.18A12.13,12.13,0,0,1,234.71,91a7.25,7.25,0,0,1,3.08,3,9.44,9.44,0,0,1,1,4.44,9.87,9.87,0,0,1-.55,3.34,7.05,7.05,0,0,1-1.51,2.5,6.51,6.51,0,0,1-2.23,1.52,9.37,9.37,0,0,1-2.4.65c-.76.08-1.83.12-3.2.12h-7.35v-.56h.68a2.84,2.84,0,0,0,1.47-.27,1.24,1.24,0,0,0,.53-.83,17.29,17.29,0,0,0,.12-2.65v-8a16.46,16.46,0,0,0-.12-2.56,1.09,1.09,0,0,0-.49-.79,3.75,3.75,0,0,0-1.63-.22h-.49Zm5.11.34v11.08c0,1.64,0,2.69.09,3.17a1.29,1.29,0,0,0,.55,1,4.24,4.24,0,0,0,1.94.29,9.28,9.28,0,0,0,3.56-.59,5,5,0,0,0,2.33-2.34,9.37,9.37,0,0,0,.93-4.44A12.06,12.06,0,0,0,235.6,95,6.72,6.72,0,0,0,234,92.27a5.33,5.33,0,0,0-2.25-1.41,11.53,11.53,0,0,0-3.17-.37C228,90.49,227.38,90.51,226.74,90.55Z"/>
  </g>
  <g>
    <line class="cls-1" x1="20" y1="95.5" x2="127" y2="95.5"/>
    <rect class="cls-1" x="20" y="93" width="107" height="5"/>
  </g>
  <g>
    <line class="cls-1" x1="479" y1="96" x2="626" y2="96"/>
    <rect class="cls-1" x="479" y="93.5" width="147" height="5"/>
  </g>
</svg>
